<svg xmlns="http://www.w3.org/2000/svg" width="35.641" height="24" viewBox="0 0 35.641 24">
  <g id="Period" transform="translate(-328.395 -29)">
    <g id="chronometre" transform="translate(289.363 29)">
      <g id="Groupe_749" data-name="Groupe 749" transform="translate(46.637)">
        <g id="Groupe_747" data-name="Groupe 747" transform="translate(9.292 19.717)">
          <g id="Groupe_746" data-name="Groupe 746">
            <g id="Groupe_745" data-name="Groupe 745">
              <path id="Tracé_463" data-name="Tracé 463" d="M320.491,582.981a.783.783,0,0,1-.784-.784v-2.011a.783.783,0,0,1,1.567,0V582.2A.783.783,0,0,1,320.491,582.981Z" transform="translate(-319.707 -579.403)"/>
            </g>
          </g>
        </g>
        <g id="Groupe_748" data-name="Groupe 748" transform="translate(0)">
          <path id="Tracé_464" data-name="Tracé 464" d="M58.5,4.015v-.9h2.209V2.928A2.928,2.928,0,0,0,57.779,0H55.647a2.929,2.929,0,0,0-2.928,2.928v.188h2.258v.89a10.075,10.075,0,1,0,3.522.008ZM56.713,21.65a7.737,7.737,0,0,1-7.686-6.943h1.111a.783.783,0,0,0,0-1.567H49.027a7.726,7.726,0,1,1,7.686,8.51Z" transform="translate(-46.637)"/>
          <path id="Tracé_465" data-name="Tracé 465" d="M341.727,195.334l-.034,0v7.207H349A7.273,7.273,0,0,0,341.727,195.334Z" transform="translate(-331.652 -188.687)"/>
          <path id="Tracé_466" data-name="Tracé 466" d="M536.879,100.459l-1.634-1.635a.774.774,0,0,0-1.1,0l-1.325,1.325,2.73,2.729,1.323-1.323A.774.774,0,0,0,536.879,100.459Z" transform="translate(-516.279 -95.242)"/>
        </g>
      </g>
    </g>
    <path id="Tracé_492" data-name="Tracé 492" d="M6.4,53.871a.643.643,0,0,0,1.028-.514V52.071h3.607V50.786H6.786a.643.643,0,0,0-.643.643v.643L2.714,49.5l3.428-2.571v.643a.643.643,0,0,0,.643.643h4.25V46.929H7.429V45.643A.643.643,0,0,0,6.4,45.129L1.257,48.986a.642.642,0,0,0,0,1.028Z" transform="translate(327.395 -7)"/>
    <path id="Tracé_493" data-name="Tracé 493" d="M6.4,53.871a.643.643,0,0,0,1.028-.514V52.071h3.607V50.786H6.786a.643.643,0,0,0-.643.643v.643L2.714,49.5l3.428-2.571v.643a.643.643,0,0,0,.643.643h4.25V46.929H7.429V45.643A.643.643,0,0,0,6.4,45.129L1.257,48.986a.642.642,0,0,0,0,1.028Z" transform="translate(365.036 92) rotate(180)"/>
  </g>
</svg>
